<svg xmlns:dc="http://purl.org/dc/elements/1.1/" xmlns:cc="http://creativecommons.org/ns#" xmlns:rdf="http://www.w3.org/1999/02/22-rdf-syntax-ns#" xmlns:svg="http://www.w3.org/2000/svg" xmlns="http://www.w3.org/2000/svg" xmlns:xlink="http://www.w3.org/1999/xlink" xmlns:sodipodi="http://sodipodi.sourceforge.net/DTD/sodipodi-0.dtd" xmlns:inkscape="http://www.inkscape.org/namespaces/inkscape" width="200mm" height="200mm" viewBox="0 0 200 200" version="1.1" id="svg8" inkscape:version="1.0.2 (e86c870879, 2021-01-15)" sodipodi:docname="caveira-cristal.svg"> <defs id="defs2"> <linearGradient inkscape:collect="always" id="linearGradient1068"> <stop style="stop-color:#51565e;stop-opacity:1" offset="0" id="stop1064" /> <stop style="stop-color:#000000;stop-opacity:0.9985283" offset="1" id="stop1066" /> </linearGradient> <linearGradient inkscape:collect="always" id="linearGradient1060"> <stop style="stop-color:#ffffff;stop-opacity:1" offset="0" id="stop1056" /> <stop style="stop-color:#000000;stop-opacity:1" offset="1" id="stop1058" /> </linearGradient> <linearGradient inkscape:collect="always" id="linearGradient965"> <stop style="stop-color:#51565e;stop-opacity:1" offset="0" id="stop961" /> <stop style="stop-color:#ffffff;stop-opacity:0;" offset="1" id="stop963" /> </linearGradient> <linearGradient inkscape:collect="always" id="linearGradient928"> <stop style="stop-color:#ffffff;stop-opacity:1;" offset="0" id="stop924" /> <stop style="stop-color:#ffffff;stop-opacity:0;" offset="1" id="stop926" /> </linearGradient> <inkscape:perspective sodipodi:type="inkscape:persp3d" inkscape:vp_x="0 : 100 : 1" inkscape:vp_y="0 : 1000 : 0" inkscape:vp_z="200 : 100 : 1" inkscape:persp3d-origin="100 : 66.666667 : 1" id="perspective896" /> <linearGradient inkscape:collect="always" id="linearGradient1907"> <stop style="stop-color:#51565e;stop-opacity:1" offset="0" id="stop1903" /> <stop style="stop-color:#ffffff;stop-opacity:0;" offset="1" id="stop1905" /> </linearGradient> <linearGradient inkscape:collect="always" id="linearGradient1891"> <stop style="stop-color:#ffffff;stop-opacity:1;" offset="0" id="stop1887" /> <stop style="stop-color:#ffffff;stop-opacity:0;" offset="1" id="stop1889" /> </linearGradient> <linearGradient inkscape:collect="always" id="linearGradient1883"> <stop style="stop-color:#ffffff;stop-opacity:1;" offset="0" id="stop1879" /> <stop style="stop-color:#ffffff;stop-opacity:0;" offset="1" id="stop1881" /> </linearGradient> <linearGradient inkscape:collect="always" id="default"> <stop style="stop-color:#51565e;stop-opacity:1" offset="0" id="stop1541" /> <stop style="stop-color:#000000;stop-opacity:1" offset="1" id="stop1543" /> </linearGradient> <radialGradient inkscape:collect="always" xlink:href="#default" id="radialGradient1539" gradientUnits="userSpaceOnUse" gradientTransform="matrix(1,0,0,0.4,9.2226562e-7,24)" cx="188.65787" cy="136.28241" fx="188.65787" fy="136.28241" r="100" /> <radialGradient inkscape:collect="always" xlink:href="#default" id="radialGradient1553" gradientUnits="userSpaceOnUse" gradientTransform="matrix(1,0,0,0.4,10.488981,72.2839)" cx="188.65787" cy="136.28241" fx="188.65787" fy="136.28241" r="100" /> <radialGradient inkscape:collect="always" xlink:href="#linearGradient1883" id="radialGradient1885" cx="49.041481" cy="65.761391" fx="49.041481" fy="65.761391" r="18.041702" gradientTransform="matrix(-1.0136087,-0.02201321,0.07838218,-3.4558774,93.108174,280.47236)" gradientUnits="userSpaceOnUse" /> <radialGradient inkscape:collect="always" xlink:href="#linearGradient1891" id="radialGradient1893" cx="49.041481" cy="65.701729" fx="49.041481" fy="65.701729" r="22.644178" gradientTransform="matrix(1.0117445,-0.01605036,0.03159966,1.9452667,-3.6718409,-74.890742)" gradientUnits="userSpaceOnUse" /> <radialGradient inkscape:collect="always" xlink:href="#linearGradient1907" id="radialGradient1909" cx="155.72713" cy="102.03998" fx="155.72713" fy="102.03998" r="22.774065" gradientTransform="matrix(0.99998136,0.00530526,-0.01475764,2.6916567,1.7135109,-160.08129)" gradientUnits="userSpaceOnUse" /> <radialGradient inkscape:collect="always" xlink:href="#linearGradient928" id="radialGradient930" cx="5e-07" cy="5e-07" fx="5e-07" fy="5e-07" r="100" gradientUnits="userSpaceOnUse" /> <radialGradient inkscape:collect="always" xlink:href="#linearGradient965" id="radialGradient930-3" cx="27.501036" cy="-69.747299" fx="27.501036" fy="-69.747299" r="100" gradientUnits="userSpaceOnUse" gradientTransform="matrix(1.1856695,0.00701374,-0.00591532,0.9999825,-203.72404,-200.13542)" /> <radialGradient inkscape:collect="always" xlink:href="#linearGradient1060" id="radialGradient1062" cx="42.918346" cy="56.622395" fx="42.918346" fy="56.622395" r="40.159038" gradientTransform="matrix(1.5667549,0.01338708,-0.02119169,2.480166,-28.846653,-152.39332)" gradientUnits="userSpaceOnUse" /> <radialGradient inkscape:collect="always" xlink:href="#linearGradient1068" id="radialGradient1070" cx="142.30708" cy="157.05887" fx="142.30708" fy="157.05887" r="40.159037" gradientTransform="matrix(1,0,0,2.4802566,0,-151.6803)" gradientUnits="userSpaceOnUse" /> </defs> <sodipodi:namedview id="base" pagecolor="#000000" bordercolor="#666666" borderopacity="1.0" inkscape:pageopacity="0" inkscape:pageshadow="2" inkscape:zoom="0.7064375" inkscape:cx="377.95276" inkscape:cy="377.95276" inkscape:document-units="mm" inkscape:current-layer="g1004" inkscape:document-rotation="0" showgrid="false" inkscape:window-width="1366" inkscape:window-height="731" inkscape:window-x="0" inkscape:window-y="1080" inkscape:window-maximized="1" /> <metadata id="metadata5"> <rdf:RDF> <cc:Work rdf:about=""> <dc:format>image/svg+xml</dc:format> <dc:type rdf:resource="http://purl.org/dc/dcmitype/StillImage" /> <dc:title></dc:title> </cc:Work> </rdf:RDF> </metadata> <g inkscape:label="Layer 1" inkscape:groupmode="layer" id="layer1"> <g id="g1004"> <g id="g1080" style="opacity:0.5"> <path style="fill:url(#radialGradient1062);stroke:none;stroke-width:0.264583px;stroke-linecap:butt;stroke-linejoin:miter;stroke-opacity:1;fill-opacity:1" d="M 100.0786,2.8642064 C 56.04711,2.9108394 18.03872,22.329715 20.52271,82.313565 l 5.64528,7.616684 -6.18293,8.064688 c -2.322,31.987053 14.00384,30.959193 19.53447,30.914603 l 0.19835,39.5612 c -0.61691,14.41376 26.71659,22.41254 40.14422,33.6029 6.72057,-2.43814 13.44115,-6.02249 20.16172,-5.10766 z" id="path986-5" sodipodi:nodetypes="ccccccccc" /> <path style="fill:url(#radialGradient1070);fill-opacity:1;stroke:none;stroke-width:0.264583px;stroke-linecap:butt;stroke-linejoin:miter;stroke-opacity:1" d="M 99.549433,2.8642064 C 143.58092,2.9108394 181.58931,22.329715 179.10532,82.313565 l -5.64528,7.616684 6.18293,8.064688 c 2.322,31.987053 -14.00384,30.959193 -19.53447,30.914603 l -0.19835,39.5612 c 0.61691,14.41376 -26.71659,22.41254 -40.14422,33.6029 -6.72057,-2.43814 -13.44115,-6.02249 -20.161717,-5.10766 z" id="path986" sodipodi:nodetypes="ccccccccc" /> <path style="fill:#ff0000;fill-opacity:1;stroke:none;stroke-width:0.264583px;stroke-linecap:butt;stroke-linejoin:miter;stroke-opacity:1" d="m 99.670203,109.17568 c 6.284437,0.68146 12.052687,16.7915 12.072657,16.85141 -0.62109,6.53815 -3.56114,5.53972 -6.09921,5.8477 -1.42426,0.77487 -3.81914,-3.0606 -5.847687,-5.15602 z" id="path960" sodipodi:nodetypes="ccccc" /> <path style="fill:#ff0000;fill-opacity:1;stroke:none;stroke-width:0.264583px;stroke-linecap:butt;stroke-linejoin:miter;stroke-opacity:1" d="m 144.56981,75.44622 c -10.69707,3.471121 -22.4346,6.068263 -27.41993,14.337225 2.46025,9.148714 5.11474,17.970735 12.72429,18.459185 11.63475,-2.02648 28.16827,2.34258 32.07953,-9.767231 0.57907,-13.962805 -0.77046,-26.023415 -17.38389,-23.029179 z" id="path988" sodipodi:nodetypes="ccccc" /> <path style="fill:#ff0000;fill-opacity:1;stroke:none;stroke-width:0.264583px;stroke-linecap:butt;stroke-linejoin:miter;stroke-opacity:1" d="m 160.63767,128.90954 v 9.95756 h -16.26155 c 3.11398,23.07217 -3.06438,37.90115 -29.48509,34.77321 v 8.60234 h -9.85684 v -8.51273 h -5.107628 v -14.51645 h 5.645268 v -10.75293 h 9.13998 v 9.58805 c 17.49158,2.37122 17.00014,-13.01574 15.76348,-29.13859 z" id="path992" sodipodi:nodetypes="ccccccccccccccc" /> <path style="fill:#ff0000;fill-opacity:1;stroke:none;stroke-width:0.264583px;stroke-linecap:butt;stroke-linejoin:miter;stroke-opacity:1" d="m 100.487,109.17568 c -6.284443,0.68146 -12.052693,16.7915 -12.072663,16.85141 0.62109,6.53815 3.56114,5.53972 6.09921,5.8477 1.42426,0.77487 3.81914,-3.0606 5.847693,-5.15602 z" id="path960-7" sodipodi:nodetypes="ccccc" /> <path style="fill:#ff0000;fill-opacity:1;stroke:none;stroke-width:0.264583px;stroke-linecap:butt;stroke-linejoin:miter;stroke-opacity:1" d="m 55.58739,75.44622 c 10.69707,3.471121 22.4346,6.068263 27.41993,14.337225 C 80.54707,98.932159 77.89258,107.75418 70.28303,108.24263 58.64828,106.21615 42.11476,110.58521 38.2035,98.475399 37.62443,84.512594 38.97396,72.451984 55.58739,75.44622 Z" id="path988-3" sodipodi:nodetypes="ccccc" /> <path style="fill:#ff0000;fill-opacity:1;stroke:none;stroke-width:0.264583px;stroke-linecap:butt;stroke-linejoin:miter;stroke-opacity:1" d="m 39.51953,128.90954 v 9.95756 h 16.26155 c -3.11398,23.07217 3.06438,37.90115 29.48509,34.77321 v 8.60234 h 9.85684 v -8.51273 h 5.10763 v -14.51645 h -5.64527 v -10.75293 h -9.13998 v 9.58805 C 67.95381,160.41981 68.44525,145.03285 69.68191,128.91 Z" id="path992-5" sodipodi:nodetypes="ccccccccccccccc" /> </g> </g> </g> </svg>
